<svg width="19" height="16" viewBox="0 0 19 16" fill="none" xmlns="http://www.w3.org/2000/svg">
<path d="M18.1559 7.60227L11.2616 0.707976C11.1561 0.602486 11.013 0.543223 10.8638 0.543223C10.7147 0.543223 10.5716 0.602486 10.4661 0.707976C10.3606 0.813465 10.3013 0.95654 10.3013 1.10572C10.3013 1.25491 10.3606 1.39798 10.4661 1.50347L16.3992 7.43654L0.787576 7.44317C0.639891 7.44317 0.498255 7.50184 0.393826 7.60626C0.289397 7.71069 0.23073 7.85233 0.23073 8.00002C0.230729 8.1477 0.289397 8.28934 0.393826 8.39376C0.498255 8.49819 0.639891 8.55686 0.787575 8.55686L16.3992 8.56349L10.4661 14.4966C10.3606 14.602 10.3013 14.7451 10.3013 14.8943C10.3013 15.0435 10.3606 15.1866 10.4661 15.2921C10.5716 15.3975 10.7147 15.4568 10.8638 15.4568C11.013 15.4568 11.1561 15.3975 11.2616 15.2921L18.1559 8.39776C18.2614 8.29227 18.3206 8.1492 18.3206 8.00001C18.3206 7.85083 18.2614 7.70776 18.1559 7.60227Z" fill="white"/>
</svg>
