<svg width="15" height="14" viewBox="0 0 15 14" fill="none" xmlns="http://www.w3.org/2000/svg">
<path d="M14.0598 1.00281V10.7528C14.0598 10.902 14.0005 11.0451 13.895 11.1506C13.7895 11.256 13.6465 11.3153 13.4973 11.3153C13.3481 11.3153 13.205 11.256 13.0995 11.1506C12.994 11.0451 12.9348 10.902 12.9348 10.7528V2.36218L1.89103 13.3966C1.7866 13.501 1.64496 13.5597 1.49728 13.5597C1.34959 13.5597 1.20796 13.501 1.10353 13.3966C0.999097 13.2921 0.94043 13.1505 0.94043 13.0028C0.94043 12.8551 0.999097 12.7135 1.10353 12.6091L12.1379 1.56531H3.74728C3.59809 1.56531 3.45502 1.50604 3.34953 1.40055C3.24404 1.29507 3.18478 1.15199 3.18478 1.00281C3.18478 0.853623 3.24404 0.710549 3.34953 0.60506C3.45502 0.499571 3.59809 0.440308 3.74728 0.440308H13.4973C13.6465 0.440308 13.7895 0.499571 13.895 0.60506C14.0005 0.710549 14.0598 0.853623 14.0598 1.00281Z" fill="white"/>
</svg>
