<svg width="17" height="12" viewBox="0 0 17 12" fill="none" xmlns="http://www.w3.org/2000/svg">
<path d="M5.80685 11.8098C5.73321 11.8098 5.66034 11.7948 5.59265 11.7658C5.52497 11.7368 5.46388 11.6944 5.4131 11.641L0.163097 6.39103C0.111389 6.33932 0.0703716 6.27793 0.0423875 6.21037C0.0144033 6.14281 0 6.0704 0 5.99728C0 5.92415 0.0144033 5.85174 0.0423875 5.78418C0.0703716 5.71662 0.111389 5.65523 0.163097 5.60353C0.214805 5.55182 0.276191 5.5108 0.34375 5.48282C0.41131 5.45483 0.48372 5.44043 0.556847 5.44043C0.629973 5.44043 0.702383 5.45483 0.769943 5.48282C0.837502 5.5108 0.898889 5.55182 0.950597 5.60353L5.80685 10.4504L15.9131 0.353527C16.0175 0.249098 16.1592 0.19043 16.3068 0.19043C16.4545 0.19043 16.5962 0.249098 16.7006 0.353527C16.805 0.457956 16.8637 0.599591 16.8637 0.747276C16.8637 0.894961 16.805 1.0366 16.7006 1.14103L6.2006 11.641C6.14981 11.6944 6.08872 11.7368 6.02104 11.7658C5.95336 11.7948 5.88049 11.8098 5.80685 11.8098Z" fill="white"/>
</svg>
