<svg width="14" height="16" viewBox="0 0 14 16" fill="none" xmlns="http://www.w3.org/2000/svg">
<path d="M3.83325 6.41675V4.04175C3.83249 3.27046 4.11325 2.5254 4.62284 1.94643C5.13243 1.36745 5.83581 0.994363 6.60095 0.897189C7.3661 0.800015 8.14041 0.985436 8.77855 1.41865C9.41668 1.85187 9.87477 2.50309 10.0668 3.25009M6.99992 10.3751C7.20988 10.3751 7.41124 10.2917 7.55971 10.1432C7.70818 9.99475 7.79158 9.79338 7.79158 9.58342C7.79158 9.37346 7.70818 9.17209 7.55971 9.02363C7.41124 8.87516 7.20988 8.79175 6.99992 8.79175C6.78996 8.79175 6.58859 8.87516 6.44013 9.02363C6.29166 9.17209 6.20825 9.37346 6.20825 9.58342C6.20825 9.79338 6.29166 9.99475 6.44013 10.1432C6.58859 10.2917 6.78996 10.3751 6.99992 10.3751ZM6.99992 10.3751V12.7501M2.72492 6.41675H11.2749C11.9716 6.41675 12.5416 6.98675 12.5416 7.68342V13.2251C12.5416 14.2701 11.6866 15.1251 10.6416 15.1251H3.35825C2.31325 15.1251 1.45825 14.2701 1.45825 13.2251V7.68342C1.45825 6.98675 2.02825 6.41675 2.72492 6.41675Z" stroke="black" stroke-width="1.1875" stroke-miterlimit="10" stroke-linecap="round" stroke-linejoin="round"/>
</svg>
