<svg width="19" height="21" viewBox="0 0 19 21" fill="none" xmlns="http://www.w3.org/2000/svg">
<g clip-path="url(#clip0_383_179)">
<rect width="18.0504" height="19.6913" transform="translate(0 0.762085)" fill="#E4E4E4"/>
<path d="M7.52104 16.3511V12.2487H10.5294V16.3511C10.5294 16.8023 10.8679 17.1715 11.2815 17.1715H13.5378C13.9515 17.1715 14.2899 16.8023 14.2899 16.3511V10.6078H15.5685C15.9145 10.6078 16.0799 10.1401 15.8167 9.89396L9.52914 3.71581C9.24335 3.43685 8.80713 3.43685 8.52133 3.71581L2.23379 9.89396C1.97807 10.1401 2.13601 10.6078 2.48198 10.6078H3.76055V16.3511C3.76055 16.8023 4.09899 17.1715 4.51264 17.1715H6.76894C7.18259 17.1715 7.52104 16.8023 7.52104 16.3511Z" fill="#C16D70"/>
</g>
<defs>
<clipPath id="clip0_383_179">
<rect width="18.0504" height="19.6913" fill="white" transform="translate(0 0.762085)"/>
</clipPath>
</defs>
</svg>
