<svg width="19" height="20" viewBox="0 0 19 20" fill="none" xmlns="http://www.w3.org/2000/svg">
<path d="M8.43743 16.675L8.12905 14.3855C7.85702 14.309 7.56312 14.1892 7.24736 14.0261C6.93103 13.8625 6.66212 13.6873 6.44064 13.5005L4.16784 14.399L2.5791 11.8261L4.54352 10.4494C4.51796 10.3069 4.49723 10.1596 4.48133 10.0076C4.46429 9.85563 4.45578 9.70812 4.45578 9.56509C4.45578 9.43209 4.46429 9.29223 4.48133 9.14551C4.49723 8.99879 4.51796 8.83359 4.54352 8.64992L2.5791 7.2748L4.16784 4.73197L6.4236 5.61547C6.67803 5.4186 6.95346 5.24101 7.24992 5.08267C7.54523 4.92434 7.83288 4.8019 8.11286 4.71534L8.43657 2.42505H11.6158L11.9233 4.73038C12.2498 4.83699 12.5383 4.95917 12.7888 5.09692C13.0392 5.23467 13.2974 5.40726 13.5631 5.61467L15.8845 4.73197L17.4732 7.27401L15.4441 8.69584C15.4906 8.85945 15.5168 9.0096 15.5224 9.1463C15.5281 9.28299 15.531 9.41758 15.531 9.55005C15.531 9.67302 15.5253 9.80259 15.5139 9.93876C15.5031 10.0755 15.4781 10.2406 15.439 10.4343L17.4358 11.8261L15.847 14.399L13.5631 13.4854C13.2979 13.6928 13.031 13.8704 12.7624 14.0182C12.4938 14.166 12.2141 14.2834 11.9233 14.3705L11.6158 16.675H8.43743ZM10.0032 11.5292C10.5972 11.5292 11.1007 11.3374 11.5135 10.9537C11.9264 10.57 12.1328 10.1021 12.1328 9.55005C12.1328 8.99799 11.9264 8.53012 11.5135 8.14642C11.1007 7.76273 10.5972 7.57088 10.0032 7.57088C9.40572 7.57088 8.90141 7.76273 8.49024 8.14642C8.07907 8.53012 7.87349 8.99799 7.87349 9.55005C7.87349 10.1021 8.07907 10.57 8.49024 10.9537C8.90141 11.3374 9.40572 11.5292 10.0032 11.5292Z" fill="#D2A8AA"/>
</svg>
