<svg width="19" height="18" viewBox="0 0 19 18" fill="none" xmlns="http://www.w3.org/2000/svg">
<g clip-path="url(#clip0_383_173)">
<path fill-rule="evenodd" clip-rule="evenodd" d="M3.81714 6.18181C3.81714 7.94399 5.18427 9.37253 6.87071 9.37253C8.55715 9.37253 9.92428 7.94399 9.92428 6.18181C9.92428 4.41962 8.55715 2.99109 6.87071 2.99109C5.18427 2.99109 3.81714 4.41962 3.81714 6.18181ZM11.4516 9.37268C11.4516 10.6943 12.4769 11.7657 13.7418 11.7657C15.0066 11.7657 16.0319 10.6943 16.0319 9.37268C16.0319 8.05105 15.0066 6.97965 13.7418 6.97965C12.4769 6.97965 11.4516 8.05105 11.4516 9.37268Z" fill="#C16D70"/>
<path fill-rule="evenodd" clip-rule="evenodd" d="M6.85781 10.968C3.25351 10.968 0.296394 12.9036 0.000497491 16.7107C-0.0156203 16.9181 0.363918 17.3495 0.555369 17.3495H13.166C13.7395 17.3495 13.7484 16.8672 13.7395 16.7113C13.5158 12.7973 10.5128 10.968 6.85781 10.968ZM14.9627 17.3493V17.3494H17.9059C18.32 17.3494 18.3265 16.9877 18.32 16.8708C18.1603 13.9675 16.0372 12.5936 13.4369 12.5638C14.395 13.8969 14.9627 15.5538 14.9627 17.3493Z" fill="#C16D70"/>
</g>
<defs>
<clipPath id="clip0_383_173">
<rect width="18.0504" height="17.2299" fill="white" transform="translate(0 0.119507)"/>
</clipPath>
</defs>
</svg>
