<svg width="19" height="21" viewBox="0 0 19 21" fill="none" xmlns="http://www.w3.org/2000/svg">
<g clip-path="url(#clip0_383_167)">
<path d="M5.0322 8.38458H5.18945C5.79489 8.38458 6.29025 8.90148 6.29025 9.53324V15.2765C6.29025 15.9083 5.79489 16.4252 5.18945 16.4252H5.0322C4.42676 16.4252 3.9314 15.9083 3.9314 15.2765V9.53324C3.9314 8.90148 4.42676 8.38458 5.0322 8.38458ZM9.43539 4.9386C10.0408 4.9386 10.5362 5.4555 10.5362 6.08726V15.2765C10.5362 15.9083 10.0408 16.4252 9.43539 16.4252C8.82995 16.4252 8.33459 15.9083 8.33459 15.2765V6.08726C8.33459 5.4555 8.82995 4.9386 9.43539 4.9386ZM13.8386 11.5024C14.444 11.5024 14.9394 12.0193 14.9394 12.651V15.2765C14.9394 15.9083 14.444 16.4252 13.8386 16.4252C13.2331 16.4252 12.7378 15.9083 12.7378 15.2765V12.651C12.7378 12.0193 13.2331 11.5024 13.8386 11.5024Z" fill="#C16D70"/>
</g>
<defs>
<clipPath id="clip0_383_167">
<rect width="18.8708" height="19.6913" fill="white" transform="translate(0 0.83606)"/>
</clipPath>
</defs>
</svg>
