<svg width="17" height="17" viewBox="0 0 17 17" fill="none" xmlns="http://www.w3.org/2000/svg">
<mask id="mask0_487_327" style="mask-type:alpha" maskUnits="userSpaceOnUse" x="0" y="0" width="17" height="17">
<rect y="0.0141602" width="16.4094" height="16.4094" fill="#D9D9D9"/>
</mask>
<g mask="url(#mask0_487_327)">
<path d="M2.73525 14.3726C2.3592 14.3726 2.03728 14.2387 1.76949 13.9709C1.50169 13.7032 1.3678 13.3812 1.3678 13.0052V5.48419C1.3678 5.10814 1.50169 4.78622 1.76949 4.51843C2.03728 4.25064 2.3592 4.11674 2.73525 4.11674H5.47015V2.74929C5.47015 2.37324 5.60405 2.05132 5.87184 1.78353C6.13964 1.51573 6.46156 1.38184 6.83761 1.38184H9.57251C9.94856 1.38184 10.2705 1.51573 10.5383 1.78353C10.8061 2.05132 10.94 2.37324 10.94 2.74929V4.11674H13.6749C14.0509 4.11674 14.3728 4.25064 14.6406 4.51843C14.9084 4.78622 15.0423 5.10814 15.0423 5.48419V13.0052C15.0423 13.3812 14.9084 13.7032 14.6406 13.9709C14.3728 14.2387 14.0509 14.3726 13.6749 14.3726H2.73525ZM6.83761 4.11674H9.57251V2.74929H6.83761V4.11674ZM13.6749 10.2703H10.2562V11.6377H6.15388V10.2703H2.73525V13.0052H13.6749V10.2703ZM7.52133 10.2703H8.88878V8.90282H7.52133V10.2703ZM2.73525 8.90282H6.15388V7.53537H10.2562V8.90282H13.6749V5.48419H2.73525V8.90282Z" fill="#C16D70" fill-opacity="0.5"/>
</g>
</svg>
