<svg width="17" height="17" viewBox="0 0 17 17" fill="none" xmlns="http://www.w3.org/2000/svg">
<mask id="mask0_383_399" style="mask-type:alpha" maskUnits="userSpaceOnUse" x="0" y="0" width="17" height="17">
<rect y="0.0140381" width="16.4094" height="16.4094" fill="#D9D9D9"/>
</mask>
<g mask="url(#mask0_383_399)">
<path d="M2.70841 19.4066C2.33272 19.4066 2.01111 19.2707 1.74358 18.9987C1.47605 18.7268 1.34229 18.3999 1.34229 18.018V10.3807C1.34229 9.99881 1.47605 9.6719 1.74358 9.39997C2.01111 9.12803 2.33272 8.99206 2.70841 8.99206H5.44064V7.60345C5.44064 7.22159 5.57441 6.89468 5.84194 6.62275C6.10947 6.35081 6.43108 6.21484 6.80677 6.21484H9.539C9.91469 6.21484 10.2363 6.35081 10.5038 6.62275C10.7714 6.89468 10.9051 7.22159 10.9051 7.60345V8.99206H13.6374C14.013 8.99206 14.3347 9.12803 14.6022 9.39997C14.8697 9.6719 15.0035 9.99881 15.0035 10.3807V18.018C15.0035 18.3999 14.8697 18.7268 14.6022 18.9987C14.3347 19.2707 14.013 19.4066 13.6374 19.4066H2.70841ZM6.80677 8.99206H9.539V7.60345H6.80677V8.99206ZM13.6374 15.2408H10.2221V16.6294H6.12371V15.2408H2.70841V18.018H13.6374V15.2408ZM7.48983 15.2408H8.85595V13.8522H7.48983V15.2408ZM2.70841 13.8522H6.12371V12.4636H10.2221V13.8522H13.6374V10.3807H2.70841V13.8522Z" fill="#C16D70"/>
</g>
</svg>
