<svg width="19" height="19" viewBox="0 0 19 19" fill="none" xmlns="http://www.w3.org/2000/svg">
<path d="M9.97452 12.1596L11.6485 10.458H7.08681C6.60041 10.458 6.2063 10.0574 6.2063 9.56301C6.2063 9.06861 6.60041 8.668 7.08681 8.668H11.6482L9.97417 6.96642C9.63042 6.61702 9.63042 6.0503 9.97417 5.70053C10.3179 5.35112 10.8755 5.35112 11.2196 5.70053L14.3968 8.93006C14.7405 9.27947 14.7405 9.84618 14.3968 10.196L11.2196 13.4255C10.8758 13.7749 10.3183 13.7749 9.97417 13.4255C9.63042 13.0761 9.63042 12.5094 9.97417 12.1596H9.97452Z" fill="#C16D70"/>
<path d="M8.48487 4.55101C8.48487 4.05661 8.09076 3.65601 7.60436 3.65601H5.13894C4.16651 3.65601 3.37793 4.45757 3.37793 5.44601V13.68C3.37793 14.6685 4.16651 15.47 5.13894 15.47H7.60436C8.09076 15.47 8.48487 15.0694 8.48487 14.575C8.48487 14.0806 8.09076 13.68 7.60436 13.68H5.5792C5.33618 13.68 5.13894 13.4796 5.13894 13.2325V5.89351C5.13894 5.64649 5.33618 5.44601 5.5792 5.44601H7.60436C8.09076 5.44601 8.48487 5.04541 8.48487 4.55101Z" fill="#C16D70"/>
</svg>
