<svg width="19" height="21" viewBox="0 0 19 21" fill="none" xmlns="http://www.w3.org/2000/svg">
<g clip-path="url(#clip0_383_155)">
<path d="M9.02533 10.7557C10.6875 10.7557 12.0337 9.28702 12.0337 7.47378C12.0337 5.66054 10.6875 4.19189 9.02533 4.19189C7.3632 4.19189 6.01694 5.66054 6.01694 7.47378C6.01694 9.28702 7.3632 10.7557 9.02533 10.7557ZM9.02533 12.3966C7.01723 12.3966 3.00854 13.496 3.00854 15.6785V16.499C3.00854 16.9502 3.34699 17.3194 3.76064 17.3194H14.29C14.7037 17.3194 15.0421 16.9502 15.0421 16.499V15.6785C15.0421 13.496 11.0334 12.3966 9.02533 12.3966Z" fill="#C16D70"/>
</g>
<defs>
<clipPath id="clip0_383_155">
<rect width="18.0504" height="19.6913" fill="white" transform="translate(0 0.910034)"/>
</clipPath>
</defs>
</svg>
